{
    "asset" : {
        "generator" : "Khronos glTF Blender I/O v3.2.43",
        "version" : "2.0"
    },
    "scene" : 0,
    "scenes" : [
        {
            "name" : "Scene",
            "nodes" : [
                23,
                24,
                25,
                26,
                27,
                28,
                29,
                30,
                31,
                32
            ]
        }
    ],
    "nodes" : [
        {
            "mesh" : 0,
            "name" : "Box004_01 - Default_0",
            "translation" : [
                0,
                1.4244655176298693e-05,
                0
            ]
        },
        {
            "children" : [
                0
            ],
            "name" : "Box004",
            "rotation" : [
                -0.7071068286895752,
                0,
                0,
                0.7071067094802856
            ],
            "scale" : [
                0.8360198736190796,
                0.8360199332237244,
                0.8360199332237244
            ],
            "translation" : [
                8.82635498046875,
                6.310239315032959,
                -138.7158660888672
            ]
        },
        {
            "mesh" : 1,
            "name" : "Box005_01 - Default_0",
            "translation" : [
                2.3476313799619675e-06,
                0,
                0
            ]
        },
        {
            "children" : [
                2
            ],
            "name" : "Box005",
            "rotation" : [
                0,
                0.7071068286895752,
                0.7071068286895752,
                5.338507946817117e-08
            ],
            "translation" : [
                122.392333984375,
                8.740325927734375,
                -15.547663688659668
            ]
        },
        {
            "mesh" : 2,
            "name" : "Box006_01 - Default_0",
            "translation" : [
                5.036592483520508e-06,
                0,
                0
            ]
        },
        {
            "children" : [
                4
            ],
            "name" : "Box006",
            "rotation" : [
                -0.8325322866439819,
                0.011156468652188778,
                -0.04829259589314461,
                0.551754891872406
            ],
            "scale" : [
                1.5171620845794678,
                1.5171613693237305,
                1.5171623229980469
            ],
            "translation" : [
                -60.742855072021484,
                -8.717028617858887,
                -11.604948997497559
            ]
        },
        {
            "mesh" : 3,
            "name" : "Box007_01 - Default_0",
            "translation" : [
                -2.2649765014648438e-06,
                -3.6656856536865234e-06,
                0
            ]
        },
        {
            "children" : [
                6
            ],
            "name" : "Box007",
            "rotation" : [
                -0.4263503849506378,
                0.5040572285652161,
                0.6221280097961426,
                0.4208424389362335
            ],
            "scale" : [
                1.4527664184570312,
                1.4527655839920044,
                1.4527661800384521
            ],
            "translation" : [
                72.12469482421875,
                -5.128760814666748,
                38.934810638427734
            ]
        },
        {
            "mesh" : 4,
            "name" : "Box009_01 - Default_0",
            "translation" : [
                -2.127140760421753e-06,
                3.859400749206543e-06,
                0
            ]
        },
        {
            "children" : [
                8
            ],
            "name" : "Box009",
            "rotation" : [
                -0.73697429895401,
                -0.23065371811389923,
                -0.28491777181625366,
                0.5678817629814148
            ],
            "scale" : [
                1.1560990810394287,
                1.5171616077423096,
                1.5171620845794678
            ],
            "translation" : [
                -47.790992736816406,
                -3.464709997177124,
                -43.98606491088867
            ]
        },
        {
            "mesh" : 5,
            "name" : "Box010_01 - Default_0",
            "translation" : [
                -7.98492237663595e-06,
                -2.8507772640296025e-06,
                0
            ]
        },
        {
            "children" : [
                10
            ],
            "name" : "Box010",
            "rotation" : [
                -0.5213337540626526,
                -0.4777143895626068,
                -0.4777143895626068,
                0.5213338732719421
            ],
            "scale" : [
                1.3294178247451782,
                1.3294178247451782,
                0.7820273041725159
            ],
            "translation" : [
                -37.60375213623047,
                4.670163631439209,
                175.9161376953125
            ]
        },
        {
            "name" : "conat01",
            "rotation" : [
                -0.7010574340820312,
                -0.09229595214128494,
                -0.09229595214128494,
                0.7010573744773865
            ],
            "scale" : [
                0.8807080984115601,
                0.8807082176208496,
                0.8807081580162048
            ],
            "translation" : [
                -80.49406433105469,
                19.750946044921875,
                13.342558860778809
            ]
        },
        {
            "name" : "conat02",
            "rotation" : [
                -0.7071068286895752,
                0,
                0,
                0.7071067094802856
            ],
            "translation" : [
                -68.28581237792969,
                19.750946044921875,
                124.28185272216797
            ]
        },
        {
            "name" : "conat03",
            "rotation" : [
                -0.6903455257415771,
                0.15304593741893768,
                0.15304595232009888,
                0.6903455257415771
            ],
            "translation" : [
                -81.02006530761719,
                19.750946044921875,
                -141.24639892578125
            ]
        },
        {
            "name" : "conat04",
            "rotation" : [
                -0.7071068286895752,
                0,
                0,
                0.7071067094802856
            ],
            "translation" : [
                128.49041748046875,
                15.081449508666992,
                -170.4007110595703
            ]
        },
        {
            "name" : "conat05",
            "rotation" : [
                -0.6830127239227295,
                0.1830127090215683,
                0.1830127239227295,
                0.6830126643180847
            ],
            "translation" : [
                89.37773895263672,
                15.081449508666992,
                -101.64608001708984
            ]
        },
        {
            "name" : "conat06",
            "rotation" : [
                -0.7010573744773865,
                -0.09229598939418793,
                -0.09229597449302673,
                0.7010573744773865
            ],
            "translation" : [
                110.53299713134766,
                16.877731323242188,
                124.67317962646484
            ]
        },
        {
            "name" : "Plane003",
            "rotation" : [
                -0.7071068286895752,
                0,
                0,
                0.7071067094802856
            ],
            "scale" : [
                1.851832628250122,
                1,
                1
            ],
            "translation" : [
                10.48321533203125,
                1.256799578666687,
                -18.083877563476562
            ]
        },
        {
            "name" : "Plane004",
            "rotation" : [
                -0.7071068286895752,
                0,
                0,
                0.7071067094802856
            ],
            "scale" : [
                1.851832628250122,
                1,
                1
            ],
            "translation" : [
                10.48321533203125,
                9.076354026794434,
                -15.62421989440918
            ]
        },
        {
            "children" : [
                1,
                3,
                5,
                7,
                9,
                11,
                12,
                13,
                14,
                15,
                16,
                17,
                18,
                19
            ],
            "name" : "RootNode"
        },
        {
            "children" : [
                20
            ],
            "name" : "Object_2"
        },
        {
            "children" : [
                21
            ],
            "name" : "b2a0aabc47744e71980de11956460a7a.fbx",
            "rotation" : [
                0.7071068286895752,
                0,
                0,
                0.7071067094802856
            ]
        },
        {
            "children" : [
                22
            ],
            "name" : "Sketchfab_model",
            "rotation" : [
                -0.7071068286895752,
                0,
                0,
                0.7071067094802856
            ],
            "scale" : [
                0.009999999776482582,
                0.010000000707805157,
                0.010000000707805157
            ]
        },
        {
            "name" : "Cylinder003",
            "rotation" : [
                0,
                0,
                -0.25881901383399963,
                0.9659258127212524
            ],
            "scale" : [
                0.7990092635154724,
                0.7990092635154724,
                0.7990092635154724
            ],
            "translation" : [
                0,
                0,
                -3.6723785400390625
            ]
        },
        {
            "name" : "Cylinder001",
            "translation" : [
                0,
                0,
                -3.6723785400390625
            ]
        },
        {
            "name" : "Cylinder004",
            "rotation" : [
                0,
                0,
                -0.25881901383399963,
                0.9659258127212524
            ],
            "scale" : [
                0.7990092635154724,
                0.7990092635154724,
                0.7990092635154724
            ],
            "translation" : [
                0,
                0,
                -3.6723785400390625
            ]
        },
        {
            "name" : "Cylinder005",
            "translation" : [
                0,
                0,
                -3.6723785400390625
            ]
        },
        {
            "name" : "Cylinder006",
            "translation" : [
                0,
                0,
                -3.67236328125
            ]
        },
        {
            "name" : "Cylinder007",
            "rotation" : [
                0,
                0,
                -0.25881901383399963,
                0.9659258723258972
            ],
            "scale" : [
                0.7990092635154724,
                0.7990092635154724,
                0.7990092635154724
            ],
            "translation" : [
                0,
                0,
                -3.67236328125
            ]
        },
        {
            "name" : "Cylinder008",
            "translation" : [
                0,
                0,
                -3.67236328125
            ]
        },
        {
            "name" : "Cylinder009",
            "rotation" : [
                0,
                0,
                -0.25881901383399963,
                0.9659258723258972
            ],
            "scale" : [
                0.7990092635154724,
                0.7990092635154724,
                0.7990092635154724
            ],
            "translation" : [
                0,
                0,
                -3.67236328125
            ]
        },
        {
            "mesh" : 6,
            "name" : "Plane",
            "scale" : [
                0.7975745797157288,
                0.7975745797157288,
                2.357180118560791
            ],
            "translation" : [
                0,
                0.1440512239933014,
                0
            ]
        }
    ],
    "materials" : [
        {
            "doubleSided" : true,
            "name" : "01_-_Default",
            "pbrMetallicRoughness" : {
                "baseColorFactor" : [
                    0.44046416878700256,
                    0.2318572700023651,
                    0.08336440473794937,
                    1
                ],
                "metallicFactor" : 0,
                "roughnessFactor" : 0.8929713368415833
            }
        }
    ],
    "meshes" : [
        {
            "name" : "Box004_01 - Default_0",
            "primitives" : [
                {
                    "attributes" : {
                        "POSITION" : 0,
                        "NORMAL" : 1,
                        "TEXCOORD_0" : 2
                    },
                    "indices" : 3,
                    "material" : 0
                }
            ]
        },
        {
            "name" : "Box005_01 - Default_0",
            "primitives" : [
                {
                    "attributes" : {
                        "POSITION" : 4,
                        "NORMAL" : 5,
                        "TEXCOORD_0" : 6
                    },
                    "indices" : 7,
                    "material" : 0
                }
            ]
        },
        {
            "name" : "Box006_01 - Default_0",
            "primitives" : [
                {
                    "attributes" : {
                        "POSITION" : 8,
                        "NORMAL" : 9,
                        "TEXCOORD_0" : 10
                    },
                    "indices" : 11,
                    "material" : 0
                }
            ]
        },
        {
            "name" : "Box007_01 - Default_0",
            "primitives" : [
                {
                    "attributes" : {
                        "POSITION" : 12,
                        "NORMAL" : 13,
                        "TEXCOORD_0" : 14
                    },
                    "indices" : 15,
                    "material" : 0
                }
            ]
        },
        {
            "name" : "Box009_01 - Default_0",
            "primitives" : [
                {
                    "attributes" : {
                        "POSITION" : 16,
                        "NORMAL" : 17,
                        "TEXCOORD_0" : 18
                    },
                    "indices" : 11,
                    "material" : 0
                }
            ]
        },
        {
            "name" : "Box010_01 - Default_0",
            "primitives" : [
                {
                    "attributes" : {
                        "POSITION" : 19,
                        "NORMAL" : 20,
                        "TEXCOORD_0" : 21
                    },
                    "indices" : 22,
                    "material" : 0
                }
            ]
        },
        {
            "name" : "Plane",
            "primitives" : [
                {
                    "attributes" : {
                        "POSITION" : 23,
                        "NORMAL" : 24,
                        "TEXCOORD_0" : 25
                    },
                    "indices" : 26
                }
            ]
        }
    ],
    "accessors" : [
        {
            "bufferView" : 0,
            "componentType" : 5126,
            "count" : 38,
            "max" : [
                20.996042251586914,
                24.377403259277344,
                28.084665298461914
            ],
            "min" : [
                -25.79147720336914,
                -40.31502914428711,
                -7.279636383056641
            ],
            "type" : "VEC3"
        },
        {
            "bufferView" : 1,
            "componentType" : 5126,
            "count" : 38,
            "type" : "VEC3"
        },
        {
            "bufferView" : 2,
            "componentType" : 5126,
            "count" : 38,
            "type" : "VEC2"
        },
        {
            "bufferView" : 3,
            "componentType" : 5123,
            "count" : 60,
            "type" : "SCALAR"
        },
        {
            "bufferView" : 4,
            "componentType" : 5126,
            "count" : 153,
            "max" : [
                253.79922485351562,
                250.00003051757812,
                13.114044189453125
            ],
            "min" : [
                -30.000015258789062,
                -250,
                -9.643150329589844
            ],
            "type" : "VEC3"
        },
        {
            "bufferView" : 5,
            "componentType" : 5126,
            "count" : 153,
            "type" : "VEC3"
        },
        {
            "bufferView" : 6,
            "componentType" : 5126,
            "count" : 153,
            "type" : "VEC2"
        },
        {
            "bufferView" : 7,
            "componentType" : 5123,
            "count" : 216,
            "type" : "SCALAR"
        },
        {
            "bufferView" : 8,
            "componentType" : 5126,
            "count" : 42,
            "max" : [
                22.015213012695312,
                25.68522834777832,
                22.91020965576172
            ],
            "min" : [
                -23.254680633544922,
                -32.41490173339844,
                -7.846999168395996
            ],
            "type" : "VEC3"
        },
        {
            "bufferView" : 9,
            "componentType" : 5126,
            "count" : 42,
            "type" : "VEC3"
        },
        {
            "bufferView" : 10,
            "componentType" : 5126,
            "count" : 42,
            "type" : "VEC2"
        },
        {
            "bufferView" : 11,
            "componentType" : 5123,
            "count" : 96,
            "type" : "SCALAR"
        },
        {
            "bufferView" : 12,
            "componentType" : 5126,
            "count" : 57,
            "max" : [
                22.015213012695312,
                25.68522834777832,
                27.487060546875
            ],
            "min" : [
                -23.254680633544922,
                -26.650962829589844,
                1.0560555458068848
            ],
            "type" : "VEC3"
        },
        {
            "bufferView" : 13,
            "componentType" : 5126,
            "count" : 57,
            "type" : "VEC3"
        },
        {
            "bufferView" : 14,
            "componentType" : 5126,
            "count" : 57,
            "type" : "VEC2"
        },
        {
            "bufferView" : 15,
            "componentType" : 5123,
            "count" : 90,
            "type" : "SCALAR"
        },
        {
            "bufferView" : 16,
            "componentType" : 5126,
            "count" : 42,
            "max" : [
                21.93416976928711,
                27.27901840209961,
                22.91020965576172
            ],
            "min" : [
                -23.33572006225586,
                -30.821115493774414,
                -14.08213996887207
            ],
            "type" : "VEC3"
        },
        {
            "bufferView" : 17,
            "componentType" : 5126,
            "count" : 42,
            "type" : "VEC3"
        },
        {
            "bufferView" : 18,
            "componentType" : 5126,
            "count" : 42,
            "type" : "VEC2"
        },
        {
            "bufferView" : 19,
            "componentType" : 5126,
            "count" : 34,
            "max" : [
                20.996044158935547,
                24.377405166625977,
                28.084665298461914
            ],
            "min" : [
                -25.79147720336914,
                -40.315025329589844,
                -11.020724296569824
            ],
            "type" : "VEC3"
        },
        {
            "bufferView" : 20,
            "componentType" : 5126,
            "count" : 34,
            "type" : "VEC3"
        },
        {
            "bufferView" : 21,
            "componentType" : 5126,
            "count" : 34,
            "type" : "VEC2"
        },
        {
            "bufferView" : 22,
            "componentType" : 5123,
            "count" : 60,
            "type" : "SCALAR"
        },
        {
            "bufferView" : 23,
            "componentType" : 5126,
            "count" : 4,
            "max" : [
                1,
                0,
                1
            ],
            "min" : [
                -1,
                0,
                -1
            ],
            "type" : "VEC3"
        },
        {
            "bufferView" : 24,
            "componentType" : 5126,
            "count" : 4,
            "type" : "VEC3"
        },
        {
            "bufferView" : 25,
            "componentType" : 5126,
            "count" : 4,
            "type" : "VEC2"
        },
        {
            "bufferView" : 26,
            "componentType" : 5123,
            "count" : 6,
            "type" : "SCALAR"
        }
    ],
    "bufferViews" : [
        {
            "buffer" : 0,
            "byteLength" : 456,
            "byteOffset" : 0
        },
        {
            "buffer" : 0,
            "byteLength" : 456,
            "byteOffset" : 456
        },
        {
            "buffer" : 0,
            "byteLength" : 304,
            "byteOffset" : 912
        },
        {
            "buffer" : 0,
            "byteLength" : 120,
            "byteOffset" : 1216
        },
        {
            "buffer" : 0,
            "byteLength" : 1836,
            "byteOffset" : 1336
        },
        {
            "buffer" : 0,
            "byteLength" : 1836,
            "byteOffset" : 3172
        },
        {
            "buffer" : 0,
            "byteLength" : 1224,
            "byteOffset" : 5008
        },
        {
            "buffer" : 0,
            "byteLength" : 432,
            "byteOffset" : 6232
        },
        {
            "buffer" : 0,
            "byteLength" : 504,
            "byteOffset" : 6664
        },
        {
            "buffer" : 0,
            "byteLength" : 504,
            "byteOffset" : 7168
        },
        {
            "buffer" : 0,
            "byteLength" : 336,
            "byteOffset" : 7672
        },
        {
            "buffer" : 0,
            "byteLength" : 192,
            "byteOffset" : 8008
        },
        {
            "buffer" : 0,
            "byteLength" : 684,
            "byteOffset" : 8200
        },
        {
            "buffer" : 0,
            "byteLength" : 684,
            "byteOffset" : 8884
        },
        {
            "buffer" : 0,
            "byteLength" : 456,
            "byteOffset" : 9568
        },
        {
            "buffer" : 0,
            "byteLength" : 180,
            "byteOffset" : 10024
        },
        {
            "buffer" : 0,
            "byteLength" : 504,
            "byteOffset" : 10204
        },
        {
            "buffer" : 0,
            "byteLength" : 504,
            "byteOffset" : 10708
        },
        {
            "buffer" : 0,
            "byteLength" : 336,
            "byteOffset" : 11212
        },
        {
            "buffer" : 0,
            "byteLength" : 408,
            "byteOffset" : 11548
        },
        {
            "buffer" : 0,
            "byteLength" : 408,
            "byteOffset" : 11956
        },
        {
            "buffer" : 0,
            "byteLength" : 272,
            "byteOffset" : 12364
        },
        {
            "buffer" : 0,
            "byteLength" : 120,
            "byteOffset" : 12636
        },
        {
            "buffer" : 0,
            "byteLength" : 48,
            "byteOffset" : 12756
        },
        {
            "buffer" : 0,
            "byteLength" : 48,
            "byteOffset" : 12804
        },
        {
            "buffer" : 0,
            "byteLength" : 32,
            "byteOffset" : 12852
        },
        {
            "buffer" : 0,
            "byteLength" : 12,
            "byteOffset" : 12884
        }
    ],
    "buffers" : [
        {
            "byteLength" : 12896,
            "uri" : "data:application/octet-stream;base64,"
        }
    ]
}
